<svg xmlns="http://www.w3.org/2000/svg" viewBox="0 0 512 512" fill="none">
  <!-- Purple Rounded Rect -->
  <rect x="56" y="56" width="400" height="400" rx="90" fill="#7B2CF5" />
  
  <!-- Document -->
  <path d="M 165 160 a 20 20 0 0 1 20 -20 h 160 a 20 20 0 0 1 20 20 v 200 l -20 15 l -20 -15 l -20 15 l -20 -15 l -20 15 l -20 -15 l -20 15 l -20 -15 l -20 15 l -20 -15 z" fill="#FFFFFF" />
  
  <!-- Document Lines -->
  <rect x="205" y="180" width="80" height="14" rx="7" fill="#C29CF9" />
  <rect x="205" y="220" width="120" height="14" rx="7" fill="#C29CF9" />
  <rect x="205" y="260" width="90" height="14" rx="7" fill="#C29CF9" />
  
  <!-- Seal -->
  <circle cx="221" cy="325" r="16" fill="#7B2CF5" />
  <rect x="245" y="318" width="55" height="14" rx="7" fill="#7B2CF5" />
  
  <!-- Bubble -->
  <path d="M 360 90 
           A 50 50 0 0 1 410 140 
           A 50 50 0 0 1 360 190 
           A 50 50 0 0 1 330 180
           L 310 200
           L 320 170
           A 50 50 0 0 1 310 140
           A 50 50 0 0 1 360 90 Z" 
        fill="#7B2CF5" stroke="#FFFFFF" stroke-width="12" stroke-linejoin="round" />
        
  <!-- Checkmark -->
  <path d="M340 145 l 10 10 l 20 -20" fill="none" stroke="#FFFFFF" stroke-width="10" stroke-linecap="round" stroke-linejoin="round" />
</svg>
